<svg width="16" height="16" viewBox="0 0 16 16" fill="none" xmlns="http://www.w3.org/2000/svg">
<path d="M11.5 13H15V11.625C15 11.1964 14.864 10.7784 14.6109 10.4292C14.3578 10.08 14.0003 9.81687 13.5879 9.67646C13.1756 9.53604 12.7289 9.52529 12.3101 9.6457C11.8912 9.76611 11.521 10.0117 11.2508 10.3483M11.5 13H4.5M11.5 13V11.625C11.5 11.174 11.4118 10.7429 11.2508 10.3483M11.2508 10.3483C10.9909 9.71028 10.5422 9.16338 9.9628 8.77815C9.38337 8.39291 8.69971 8.18702 8 8.18702C7.30029 8.18702 6.61663 8.39291 6.0372 8.77815C5.45777 9.16338 5.00915 9.71028 4.7492 10.3483M4.5 13H1V11.625C1.00003 11.1964 1.13603 10.7784 1.3891 10.4292C1.64217 10.08 1.99973 9.81687 2.41208 9.67646C2.82442 9.53604 3.27106 9.52529 3.68992 9.6457C4.10877 9.76611 4.47902 10.0117 4.7492 10.3483M4.5 13V11.625C4.5 11.174 4.5882 10.7429 4.7492 10.3483M10.1 4.0625C10.1 4.60951 9.87875 5.13411 9.48492 5.52091C9.0911 5.9077 8.55695 6.125 8 6.125C7.44305 6.125 6.9089 5.9077 6.51508 5.52091C6.12125 5.13411 5.9 4.60951 5.9 4.0625C5.9 3.51549 6.12125 2.99089 6.51508 2.60409C6.9089 2.2173 7.44305 2 8 2C8.55695 2 9.0911 2.2173 9.48492 2.60409C9.87875 2.99089 10.1 3.51549 10.1 4.0625ZM14.3 6.125C14.3 6.48967 14.1525 6.83941 13.8899 7.09727C13.6274 7.35513 13.2713 7.5 12.9 7.5C12.5287 7.5 12.1726 7.35513 11.9101 7.09727C11.6475 6.83941 11.5 6.48967 11.5 6.125C11.5 5.76033 11.6475 5.41059 11.9101 5.15273C12.1726 4.89487 12.5287 4.75 12.9 4.75C13.2713 4.75 13.6274 4.89487 13.8899 5.15273C14.1525 5.41059 14.3 5.76033 14.3 6.125ZM4.5 6.125C4.5 6.48967 4.3525 6.83941 4.08995 7.09727C3.8274 7.35513 3.4713 7.5 3.1 7.5C2.7287 7.5 2.3726 7.35513 2.11005 7.09727C1.8475 6.83941 1.7 6.48967 1.7 6.125C1.7 5.76033 1.8475 5.41059 2.11005 5.15273C2.3726 4.89487 2.7287 4.75 3.1 4.75C3.4713 4.75 3.8274 4.89487 4.08995 5.15273C4.3525 5.41059 4.5 5.76033 4.5 6.125Z" stroke="black" stroke-width="1.5" stroke-linecap="round" stroke-linejoin="round"/>
</svg>
