<svg width="16" height="16" viewBox="0 0 16 16" fill="none" xmlns="http://www.w3.org/2000/svg">
<g clip-path="url(#clip0_166_14085)">
<path d="M6.52512 7.43849C6.15883 6.77561 6.00685 6.01556 6.09008 5.2628C6.1733 4.51004 6.48764 3.80154 6.98989 3.23469C7.49214 2.66784 8.15763 2.27048 8.89489 2.09721C9.63215 1.92395 10.405 1.98331 11.1071 2.26711L8.81613 4.74999L9.14031 6.25862L10.6489 6.5828L13.1318 4.29179C13.4156 4.99395 13.475 5.76677 13.3017 6.50403C13.1284 7.24129 12.7311 7.90679 12.1642 8.40904C11.5974 8.91128 10.8889 9.22562 10.1361 9.30885C9.38337 9.39207 8.62331 9.24009 7.96044 8.8738L4.74959 12.5967C4.49136 12.8549 4.14111 13 3.77591 13C3.41071 13 3.06047 12.8549 2.80224 12.5967C2.544 12.3385 2.39893 11.9882 2.39893 11.623C2.39893 11.2578 2.544 10.9076 2.80224 10.6493L6.52512 7.43849Z" stroke="black" stroke-width="1.5" stroke-linecap="round" stroke-linejoin="round"/>
</g>
<defs>
<clipPath id="clip0_166_14085">
<rect width="16" height="16" fill="white"/>
</clipPath>
</defs>
</svg>
