<svg width="24" height="24" viewBox="0 0 24 24" fill="none" xmlns="http://www.w3.org/2000/svg">
<g clip-path="url(#clip0_166_14113)">
<path d="M12 21C16.9706 21 21 16.9706 21 12C21 7.02944 16.9706 3 12 3C7.02944 3 3 7.02944 3 12C3 16.9706 7.02944 21 12 21Z" stroke="#374051" stroke-width="2" stroke-linecap="round" stroke-linejoin="round"/>
<path d="M15 12C15 18 12 21 12 21C12 21 9 18 9 12C9 6 12 3 12 3C12 3 15 6 15 12Z" stroke="#374051" stroke-width="2" stroke-linecap="round" stroke-linejoin="round"/>
<path d="M3 12L21 12" stroke="#374051" stroke-width="2" stroke-linecap="round" stroke-linejoin="round"/>
</g>
<defs>
<clipPath id="clip0_166_14113">
<rect width="24" height="24" fill="white"/>
</clipPath>
</defs>
</svg>
