<svg width="20" height="20" viewBox="0 0 20 20" fill="none" xmlns="http://www.w3.org/2000/svg">
<g clip-path="url(#clip0_166_14151)">
<path d="M10 2C8.41775 2 6.87103 2.46919 5.55544 3.34824C4.23985 4.22729 3.21447 5.47672 2.60897 6.93853C2.00347 8.40034 1.84504 10.0089 2.15372 11.5607C2.4624 13.1126 3.22433 14.538 4.34315 15.6569C5.46197 16.7757 6.88743 17.5376 8.43928 17.8463C9.99113 18.155 11.5997 17.9965 13.0615 17.391C14.5233 16.7855 15.7727 15.7602 16.6518 14.4446C17.5308 13.129 18 11.5822 18 10C17.9978 7.87895 17.1542 5.84542 15.6544 4.34562C14.1546 2.84581 12.121 2.00224 10 2ZM12.8969 12.0262C12.9541 12.0833 12.9995 12.1512 13.0304 12.2259C13.0613 12.3006 13.0773 12.3807 13.0773 12.4615C13.0773 12.5424 13.0613 12.6225 13.0304 12.6972C12.9995 12.7719 12.9541 12.8397 12.8969 12.8969C12.8397 12.9541 12.7719 12.9994 12.6972 13.0304C12.6225 13.0613 12.5424 13.0773 12.4615 13.0773C12.3807 13.0773 12.3006 13.0613 12.2259 13.0304C12.1512 12.9994 12.0833 12.9541 12.0262 12.8969L10 10.87L7.97385 12.8969C7.91667 12.9541 7.8488 12.9994 7.77409 13.0304C7.69939 13.0613 7.61932 13.0773 7.53846 13.0773C7.45761 13.0773 7.37754 13.0613 7.30283 13.0304C7.22813 12.9994 7.16025 12.9541 7.10308 12.8969C7.0459 12.8397 7.00055 12.7719 6.96961 12.6972C6.93866 12.6225 6.92274 12.5424 6.92274 12.4615C6.92274 12.3807 6.93866 12.3006 6.96961 12.2259C7.00055 12.1512 7.0459 12.0833 7.10308 12.0262L9.13 10L7.10308 7.97385C6.98761 7.85837 6.92274 7.70176 6.92274 7.53846C6.92274 7.37516 6.98761 7.21855 7.10308 7.10308C7.21855 6.9876 7.37516 6.92273 7.53846 6.92273C7.70176 6.92273 7.85838 6.9876 7.97385 7.10308L10 9.13L12.0262 7.10308C12.0833 7.0459 12.1512 7.00055 12.2259 6.9696C12.3006 6.93866 12.3807 6.92273 12.4615 6.92273C12.5424 6.92273 12.6225 6.93866 12.6972 6.9696C12.7719 7.00055 12.8397 7.0459 12.8969 7.10308C12.9541 7.16025 12.9995 7.22813 13.0304 7.30283C13.0613 7.37753 13.0773 7.4576 13.0773 7.53846C13.0773 7.61932 13.0613 7.69939 13.0304 7.77409C12.9995 7.84879 12.9541 7.91667 12.8969 7.97385L10.87 10L12.8969 12.0262Z" fill="#374051"/>
</g>
<defs>
<clipPath id="clip0_166_14151">
<rect width="20" height="20" fill="white"/>
</clipPath>
</defs>
</svg>
