<svg width="16" height="16" viewBox="0 0 16 16" fill="none" xmlns="http://www.w3.org/2000/svg">
<g clip-path="url(#clip0_166_14064)">
<path d="M12 7.5C12.6211 7.49953 13.2337 7.64391 13.7892 7.92166C14.3447 8.19941 14.8277 8.60287 15.2 9.1" stroke="black" stroke-width="1.5" stroke-linecap="round" stroke-linejoin="round"/>
<path d="M0.799805 9.1C1.17207 8.60287 1.65514 8.19941 2.21063 7.92166C2.76613 7.64391 3.37874 7.49953 3.9998 7.5" stroke="black" stroke-width="1.5" stroke-linecap="round" stroke-linejoin="round"/>
<path d="M8.0001 11.5C9.32558 11.5 10.4001 10.4255 10.4001 9.1C10.4001 7.77451 9.32558 6.7 8.0001 6.7C6.67461 6.7 5.6001 7.77451 5.6001 9.1C5.6001 10.4255 6.67461 11.5 8.0001 11.5Z" stroke="black" stroke-width="1.5" stroke-linecap="round" stroke-linejoin="round"/>
<path d="M4.7998 13.9C5.12797 13.1691 5.59578 12.5632 6.157 12.1423C6.71822 11.7214 7.35342 11.5 7.9998 11.5C8.64619 11.5 9.28139 11.7214 9.84261 12.1423C10.4038 12.5632 10.8716 13.1691 11.1998 13.9" stroke="black" stroke-width="1.5" stroke-linecap="round" stroke-linejoin="round"/>
<path d="M10.3999 5C10.4949 4.63785 10.6912 4.30918 10.9665 4.05131C11.2418 3.79345 11.5851 3.61672 11.9573 3.5412C12.3295 3.46567 12.7158 3.49439 13.0723 3.62407C13.4288 3.75376 13.7412 3.97922 13.974 4.27486C14.2068 4.57049 14.3507 4.92445 14.3894 5.29653C14.428 5.66862 14.3599 6.04392 14.1927 6.37981C14.0255 6.7157 13.766 6.99872 13.4435 7.19673C13.1211 7.39475 12.7487 7.49981 12.3687 7.5" stroke="black" stroke-width="1.5" stroke-linecap="round" stroke-linejoin="round"/>
<path d="M3.63134 7.5C3.25128 7.49981 2.87889 7.39475 2.55646 7.19673C2.23403 6.99872 1.97449 6.7157 1.8073 6.37981C1.64011 6.04392 1.57198 5.66862 1.61064 5.29653C1.64931 4.92445 1.79322 4.57049 2.02603 4.27486C2.25884 3.97922 2.57123 3.75376 2.92771 3.62407C3.28419 3.49439 3.67048 3.46567 4.04271 3.5412C4.41494 3.61672 4.7582 3.79345 5.03349 4.05131C5.30878 4.30918 5.50508 4.63785 5.6001 5" stroke="black" stroke-width="1.5" stroke-linecap="round" stroke-linejoin="round"/>
</g>
<defs>
<clipPath id="clip0_166_14064">
<rect width="16" height="16" fill="white"/>
</clipPath>
</defs>
</svg>
