<svg width="16" height="16" viewBox="0 0 16 16" fill="none" xmlns="http://www.w3.org/2000/svg">
<g clip-path="url(#clip0_166_14080)">
<path d="M8 8V5" stroke="black" stroke-width="1.5" stroke-linecap="round" stroke-linejoin="round"/>
<path d="M7.9502 11.5C8.36441 11.5 8.7002 11.1642 8.7002 10.75C8.7002 10.3358 8.36441 10 7.9502 10C7.53598 10 7.2002 10.3358 7.2002 10.75C7.2002 11.1642 7.53598 11.5 7.9502 11.5Z" fill="black"/>
<path d="M13.3999 6.8154L13.3997 3.91246C13.3997 3.78543 13.347 3.6636 13.2533 3.57378C13.1595 3.48395 13.0323 3.43349 12.8997 3.43349L7.89999 2L2.89989 3.43349C2.76729 3.43349 2.64011 3.48395 2.54635 3.57378C2.45258 3.6636 2.3999 3.78543 2.3999 3.91246L2.40008 6.8154C2.40008 12.5631 7.89999 14 7.89999 14C7.89999 14 13.3999 12.5631 13.3999 6.8154Z" stroke="black" stroke-width="1.5" stroke-linecap="round" stroke-linejoin="round"/>
</g>
<defs>
<clipPath id="clip0_166_14080">
<rect width="16" height="16" fill="white"/>
</clipPath>
</defs>
</svg>
