<svg width="24" height="24" viewBox="0 0 24 24" fill="none" xmlns="http://www.w3.org/2000/svg">
<g clip-path="url(#clip0_166_14135)">
<path d="M15 10H19V6" stroke="#374051" stroke-width="2" stroke-linecap="round" stroke-linejoin="round"/>
<path d="M16.2865 17.8123C16.6847 17.4297 16.6974 16.7967 16.3148 16.3984C15.9321 16.0001 15.2991 15.9875 14.9008 16.3701L15.5937 17.0912L16.2865 17.8123ZM15.7366 7.05019L15.0232 7.75092C15.0335 7.76144 15.0441 7.77173 15.0549 7.78178L15.7366 7.05019ZM15.5937 17.0912L14.9008 16.3701C14.06 17.1779 13.0061 17.7136 11.8718 17.913L12.0449 18.8979L12.2181 19.8828C13.7469 19.6141 15.1617 18.8929 16.2865 17.8123L15.5937 17.0912ZM12.0449 18.8979L11.8718 17.913C10.7376 18.1124 9.5704 17.9673 8.51543 17.4947L8.10665 18.4074L7.69786 19.32C9.11667 19.9555 10.6891 20.1516 12.2181 19.8828L12.0449 18.8979ZM8.10665 18.4074L8.51543 17.4947C7.46026 17.0221 6.5624 16.242 5.93617 15.2493L5.0904 15.7829L4.24462 16.3164C5.0789 17.6389 6.27926 18.6846 7.69786 19.32L8.10665 18.4074ZM5.0904 15.7829L5.93617 15.2493C5.30983 14.2564 4.98378 13.0958 5.00062 11.9128L4.00072 11.8985L3.00082 11.8843C2.97849 13.4526 3.41046 14.9941 4.24462 16.3164L5.0904 15.7829ZM4.00072 11.8985L5.00062 11.9128C5.01747 10.7297 5.37642 9.57939 6.0306 8.60564L5.20053 8.04798L4.37046 7.49032C3.49884 8.78773 3.02315 10.316 3.00082 11.8843L4.00072 11.8985ZM5.20053 8.04798L6.0306 8.60564C6.68466 7.63208 7.60411 6.87904 8.67206 6.43785L8.29024 5.51362L7.90842 4.58938C6.47208 5.18276 5.24221 6.19273 4.37046 7.49032L5.20053 8.04798ZM8.29024 5.51362L8.67206 6.43785C9.73982 5.99674 10.9105 5.88605 12.0387 6.11885L12.2408 5.13949L12.4429 4.16012C10.9224 3.84636 9.34494 3.99592 7.90842 4.58938L8.29024 5.51362ZM12.2408 5.13949L12.0387 6.11885C13.1671 6.35168 14.2055 6.91836 15.0232 7.75092L15.7366 7.05019L16.4501 6.34947C15.3568 5.23634 13.9633 4.47386 12.4429 4.16012L12.2408 5.13949ZM15.7366 7.05019L15.0549 7.78178L18.3183 10.8228L19 10.0912L19.6817 9.35962L16.4184 6.3186L15.7366 7.05019Z" fill="#374051"/>
</g>
<defs>
<clipPath id="clip0_166_14135">
<rect width="24" height="24" fill="white"/>
</clipPath>
</defs>
</svg>
