<svg width="24" height="24" viewBox="0 0 24 24" fill="none" xmlns="http://www.w3.org/2000/svg">
<g clip-path="url(#clip0_166_14131)">
<path d="M13 9C13 12.7677 13 18.6478 13 18.6478C13.0001 18.7639 13.0245 18.8782 13.071 18.9806C13.1176 19.0829 13.1849 19.1702 13.267 19.2346L15.092 19.8814C15.172 19.9442 15.2637 19.9834 15.3593 19.9958C15.4549 20.0081 15.5516 19.9933 15.6413 19.9524C15.731 19.9116 15.8111 19.846 15.8747 19.7612C15.9384 19.6763 15.9837 19.5747 16.007 19.4649L17 15.0591" stroke="#374051" stroke-width="2" stroke-linecap="round" stroke-linejoin="round"/>
<path d="M4 18.3183C4.00003 18.4481 4.03704 18.5753 4.10667 18.6848C4.17631 18.7943 4.27567 18.8815 4.39308 18.9363C4.51049 18.9911 4.64106 19.0112 4.76943 18.9941C4.89781 18.977 5.01865 18.9235 5.11775 18.8399C9.57175 15.093 14.2 14.9089 14.2 14.9089H17.6C18.5017 14.9089 19.3665 14.5497 20.0042 13.9104C20.6418 13.271 21 12.4038 21 11.4996C21 10.5954 20.6418 9.72817 20.0042 9.08879C19.3665 8.44942 18.5017 8.09022 17.6 8.09022H14.2C14.2 8.09022 9.57175 7.90611 5.11775 4.16008C5.01871 4.07653 4.89794 4.02306 4.76964 4.00595C4.64134 3.98884 4.51084 4.0088 4.39346 4.06349C4.27609 4.11818 4.17671 4.20532 4.10702 4.31468C4.03732 4.42404 4.00019 4.55108 4 4.68086V18.3183Z" stroke="#374051" stroke-width="2" stroke-linecap="round" stroke-linejoin="round"/>
</g>
<defs>
<clipPath id="clip0_166_14131">
<rect width="24" height="24" fill="white"/>
</clipPath>
</defs>
</svg>
