<svg width="16" height="16" viewBox="0 0 16 16" fill="none" xmlns="http://www.w3.org/2000/svg">
<path d="M8 12.6667C8.16329 12.6667 8.32089 12.7266 8.44291 12.8351C8.56493 12.9437 8.64289 13.0932 8.662 13.2553L8.66666 13.3333V14C8.66647 14.1699 8.60141 14.3334 8.48476 14.4569C8.36812 14.5805 8.20869 14.6548 8.03907 14.6648C7.86944 14.6747 7.70241 14.6196 7.57211 14.5105C7.44181 14.4014 7.35807 14.2467 7.338 14.078L7.33333 14V13.3333C7.33333 13.1565 7.40357 12.987 7.52859 12.8619C7.65362 12.7369 7.82319 12.6667 8 12.6667ZM12.2087 11.2733L12.2713 11.3287L12.738 11.7953C12.8576 11.9153 12.927 12.0763 12.9321 12.2456C12.9373 12.4149 12.8779 12.5798 12.7658 12.7069C12.6538 12.8339 12.4976 12.9135 12.329 12.9296C12.1604 12.9457 11.992 12.8969 11.858 12.7933L11.7953 12.738L11.3287 12.2713C11.2136 12.1565 11.1445 12.0036 11.1343 11.8413C11.1241 11.6791 11.1735 11.5187 11.2733 11.3904C11.3731 11.262 11.5163 11.1746 11.676 11.1444C11.8357 11.1143 12.001 11.1435 12.1407 11.2267L12.2087 11.2733ZM4.67133 11.3287C4.78611 11.4435 4.85507 11.5962 4.86526 11.7582C4.87544 11.9202 4.82616 12.0804 4.72666 12.2087L4.67133 12.2713L4.20466 12.738C4.08469 12.8576 3.92371 12.927 3.75441 12.9322C3.58511 12.9373 3.42019 12.8779 3.29314 12.7658C3.1661 12.6538 3.08646 12.4976 3.0704 12.329C3.05433 12.1604 3.10306 11.992 3.20666 11.858L3.262 11.7953L3.72866 11.3287C3.85368 11.2037 4.02322 11.1335 4.2 11.1335C4.37677 11.1335 4.54631 11.2037 4.67133 11.3287ZM2.66666 7.33333C2.83658 7.33352 3.00002 7.39859 3.12358 7.51523C3.24713 7.63188 3.32149 7.7913 3.33144 7.96093C3.3414 8.13056 3.28621 8.29759 3.17715 8.42789C3.06809 8.55819 2.91339 8.64193 2.74466 8.662L2.66666 8.66667H2C1.83008 8.66648 1.66664 8.60141 1.54308 8.48477C1.41953 8.36812 1.34517 8.2087 1.33521 8.03907C1.32526 7.86944 1.38045 7.70241 1.48951 7.57211C1.59857 7.44181 1.75327 7.35807 1.922 7.338L2 7.33333H2.66666ZM14 7.33333C14.1699 7.33352 14.3334 7.39859 14.4569 7.51523C14.5805 7.63188 14.6548 7.7913 14.6648 7.96093C14.6747 8.13056 14.6195 8.29759 14.5105 8.42789C14.4014 8.55819 14.2467 8.64193 14.078 8.662L14 8.66667H13.3333C13.1634 8.66648 13 8.60141 12.8764 8.48477C12.7529 8.36812 12.6785 8.2087 12.6685 8.03907C12.6586 7.86944 12.7138 7.70241 12.8228 7.57211C12.9319 7.44181 13.0866 7.35807 13.2553 7.338L13.3333 7.33333H14ZM4.142 3.20667L4.20466 3.262L4.67133 3.72867C4.7909 3.84864 4.86031 4.00962 4.86548 4.17892C4.87065 4.34822 4.81119 4.51314 4.69916 4.64019C4.58714 4.76723 4.43096 4.84687 4.26235 4.86293C4.09373 4.87899 3.92532 4.83027 3.79133 4.72667L3.72866 4.67133L3.262 4.20467C3.14739 4.08979 3.07862 3.93705 3.06857 3.77509C3.05853 3.61313 3.1079 3.45306 3.20744 3.3249C3.30697 3.19674 3.44983 3.10929 3.60924 3.07893C3.76865 3.04857 3.93366 3.07739 4.07333 3.16L4.142 3.20667ZM12.738 3.262C12.8528 3.3768 12.9217 3.52953 12.9319 3.69155C12.9421 3.85356 12.8928 4.01373 12.7933 4.142L12.738 4.20467L12.2713 4.67133C12.1514 4.7909 11.9904 4.86032 11.8211 4.86549C11.6518 4.87066 11.4869 4.81119 11.3598 4.69917C11.2328 4.58714 11.1531 4.43097 11.1371 4.26235C11.121 4.09373 11.1697 3.92533 11.2733 3.79133L11.3287 3.72867L11.7953 3.262C11.9203 3.13702 12.0899 3.06681 12.2667 3.06681C12.4434 3.06681 12.613 3.13702 12.738 3.262ZM8 1.33333C8.16329 1.33335 8.32089 1.3933 8.44291 1.50181C8.56493 1.61032 8.64289 1.75983 8.662 1.922L8.66666 2V2.66667C8.66647 2.83659 8.60141 3.00002 8.48476 3.12358C8.36812 3.24714 8.20869 3.32149 8.03907 3.33145C7.86944 3.34141 7.70241 3.28622 7.57211 3.17716C7.44181 3.0681 7.35807 2.9134 7.338 2.74467L7.33333 2.66667V2C7.33333 1.82319 7.40357 1.65362 7.52859 1.5286C7.65362 1.40357 7.82319 1.33333 8 1.33333ZM8 4.66667C8.65311 4.66663 9.29185 4.85846 9.83688 5.21833C10.3819 5.57821 10.8092 6.09026 11.0657 6.69091C11.3222 7.29155 11.3966 7.95431 11.2796 8.59687C11.1627 9.23944 10.8596 9.83349 10.4079 10.3052C9.9562 10.777 9.37589 11.1057 8.73902 11.2504C8.10214 11.3952 7.43678 11.3497 6.82555 11.1195C6.21433 10.8894 5.68419 10.4847 5.30097 9.95584C4.91775 9.42697 4.69834 8.79717 4.67 8.14467L4.66666 8L4.67 7.85533C4.70728 6.99717 5.0744 6.18652 5.69481 5.59244C6.31522 4.99836 7.14102 4.66672 8 4.66667Z" fill="#272727"/>
</svg>
