<svg width="52" height="52" viewBox="0 0 52 52" fill="none" xmlns="http://www.w3.org/2000/svg">
<path d="M42 0C47.5228 5.15406e-07 52 4.47715 52 10V42C52 47.5228 47.5228 52 42 52H10C4.47715 52 9.66416e-08 47.5228 0 42V10C5.15422e-07 4.47715 4.47715 9.66387e-08 10 0H42ZM26 13C23.239 13 21.0002 15.2381 21 17.999C21 20.0401 22.2242 21.7946 23.9775 22.5713V22.5732L21.2109 38.0713C21.1016 38.6842 21.5727 39.2471 22.1953 39.2471H29.8047C30.4273 39.2471 30.8984 38.6842 30.7891 38.0713L28.0215 22.5732L28.0205 22.5713C29.7746 21.7949 30.999 20.0407 30.999 17.999C30.9988 15.2381 28.7609 13.0001 26 13Z" fill="#5E50FF"/>
</svg>
